<?xml version="1.0" encoding="utf-8"?>
<!-- Generator: Adobe Illustrator 23.0.4, SVG Export Plug-In . SVG Version: 6.00 Build 0)  -->
<svg version="1.1" id="Layer_1" xmlns="http://www.w3.org/2000/svg" xmlns:xlink="http://www.w3.org/1999/xlink" x="0px" y="0px"
	 viewBox="0 0 500 500" style="enable-background:new 0 0 500 500;" xml:space="preserve">
<style type="text/css">
	.st0{fill:#946AA5;}
</style>
<path class="st0" d="M480.9,278.5c-14.1-23.6-38.4-40.5-64.5-48.4c-2.6-0.8-5.2-1.4-7.8-2c24.9-26.2,49.4-63.7,20.2-96.1
	c-21-23.3-54.8-34.4-84.4-41.9c-8.2-2.1-16.5-3.9-24.8-5.2c-3-0.5-15.7,15.4-18,17.7c-4.2,4.2-8.4,8.4-12.6,12.7
	c-0.9,0.9-5.1,4.2-5.1,5.4c0,43.8,0,87.6,0,131.5c-9.1,2.8-18.4,5.4-27.8,7.8c0-46.2,0-92.4,0-138.5c0-12.2,0-24.3,0-36.5
	c0,0.3-0.1,0.6-0.3,1c0.1-0.3,0.2-0.7,0.3-1c-5.1,5.1-10.1,10.1-15.2,15.2c-1.3,1.1-2.4,2-2.9,2.5c-4.2,4.2-8.4,8.4-12.6,12.7
	c-1.3,1.4-4.5,3.6-5.1,5.4c-10.2,31.5-22.9,62.3-36.4,92.5c-8.8,19.5-18.1,38.7-28.3,57.5c-13.4-0.9-26.7-2.8-39.7-6.2
	c-33.2-8.5-69.3-31.7-61.5-70.9c1.9-9.5,6.1-18.3,11.1-26.6c-3.9,6.4-12.7,12.4-18,17.7c-5.6,5.6-13.6,11.3-17.7,18
	c-18.9,31.3-14.4,65.2,18.1,84.6c25.4,15.1,56.1,20,86.7,19.7c-5.5,8.7-11.1,17.3-17.1,25.6c-4.2,5.8-8.6,11.6-13.1,17.2
	c-0.4,0.4-0.8,0.9-1.1,1.3c-19,14.8-40.2,26.2-65.2,26.1c-3.9,0-15.2,14.9-18,17.7c-4.2,4.2-8.4,8.4-12.6,12.7
	c-0.8,0.8-4.2,5.4-5.1,5.4C29.5,413,53.8,399,74,381.5c25.8-22.4,50.7-47.6,71.7-74.9c18-0.9,35.7-3.4,52-6.4
	c7.6-1.4,15.1-3.1,22.5-5c0,27.7,0,55.5,0,83.2c0,12.2,0,24.3,0,36.5c0-3.3,15.4-15.1,18-17.7c4.2-4.2,8.4-8.4,12.6-12.7
	c0.9-0.9,5.1-4.2,5.1-5.4c0-31.5,0-62.9,0-94.4c9.3-3.1,18.6-6.3,27.8-9.7c0,11,0,21.9,0,32.9c0,31.4,0,62.7,0,94.1
	c0,1.6-0.9,6.6,0,8.1c2.5,3.9,23.9,3.5,29.3,3.9c24.8,1.9,50.1,2,74.6-2.7c15.9-3.1,31.9-8.3,45.1-18c10.3-7.6,18.9-17.5,27.9-26.4
	c7.5-7.5,16-14.9,22-23.7C496.3,323.4,492.7,298.3,480.9,278.5z M170.3,271.1c19.1-30.1,35.5-62.2,50-94.9c0,30.3,0,60.6,0,90.9
	C203.7,269.7,186.9,271.2,170.3,271.1z M343.3,136.7c26.4,10.3,60.5,28.3,63.5,60.2c1,10.3-1.6,20.3-5.9,29.6c-10.4-1.7-21-2-31.5-1
	c-17.4,1.7-33.3,7.8-49.4,14c0.4-36.9,0.8-73.8,0.4-110.6C328.1,131.2,335.8,133.8,343.3,136.7z M370.4,379.4
	c-14.5-0.3-28.9-1.5-43.2-3.3c-7.5-0.9-6.4,0.6-7.6-4.1c-2.2-8.2,0-20.1,0-28.6c0-16.7,0-33.3,0-50c0-10,0.1-20,0.1-30
	c9.5-2,19.3-3,29.1-2.7c28.5,0.7,56.7,11.7,77.8,31c16.9,15.5,30.7,37.8,29.3,61.5c-0.3,4.9-1.3,9.3-2.9,13.5
	c-5.7,2.6-11.6,4.6-17.6,6.2C414.3,378.6,392.1,379.9,370.4,379.4z"/>
</svg>
